<mxfile host="app.diagrams.net" modified="2023-02-23T13:50:03.393Z" agent="5.0 (Windows)" etag="B6B0KZBvYhNwkSPNB9o5" version="20.8.23" type="github">
  <diagram id="C5RBs43oDa-KdzZeNtuy" name="Page-1">
    <mxGraphModel dx="1434" dy="782" grid="1" gridSize="10" guides="1" tooltips="1" connect="1" arrows="1" fold="1" page="1" pageScale="1" pageWidth="827" pageHeight="1169" math="0" shadow="0">
      <root>
        <mxCell id="WIyWlLk6GJQsqaUBKTNV-0" />
        <mxCell id="WIyWlLk6GJQsqaUBKTNV-1" parent="WIyWlLk6GJQsqaUBKTNV-0" />
        <mxCell id="RQdduKd7LZK1Ae8wjjpL-2" style="edgeStyle=orthogonalEdgeStyle;rounded=0;orthogonalLoop=1;jettySize=auto;html=1;entryX=0.5;entryY=0;entryDx=0;entryDy=0;" edge="1" parent="WIyWlLk6GJQsqaUBKTNV-1" source="RQdduKd7LZK1Ae8wjjpL-0" target="RQdduKd7LZK1Ae8wjjpL-1">
          <mxGeometry relative="1" as="geometry" />
        </mxCell>
        <mxCell id="RQdduKd7LZK1Ae8wjjpL-0" value="START" style="ellipse;whiteSpace=wrap;html=1;" vertex="1" parent="WIyWlLk6GJQsqaUBKTNV-1">
          <mxGeometry x="354" y="50" width="120" height="80" as="geometry" />
        </mxCell>
        <mxCell id="RQdduKd7LZK1Ae8wjjpL-4" style="edgeStyle=orthogonalEdgeStyle;rounded=0;orthogonalLoop=1;jettySize=auto;html=1;entryX=0.5;entryY=0;entryDx=0;entryDy=0;" edge="1" parent="WIyWlLk6GJQsqaUBKTNV-1" source="RQdduKd7LZK1Ae8wjjpL-1" target="RQdduKd7LZK1Ae8wjjpL-3">
          <mxGeometry relative="1" as="geometry" />
        </mxCell>
        <mxCell id="RQdduKd7LZK1Ae8wjjpL-1" value="a=[1,3,4,6]" style="rounded=0;whiteSpace=wrap;html=1;" vertex="1" parent="WIyWlLk6GJQsqaUBKTNV-1">
          <mxGeometry x="354" y="200" width="120" height="60" as="geometry" />
        </mxCell>
        <mxCell id="RQdduKd7LZK1Ae8wjjpL-8" style="edgeStyle=orthogonalEdgeStyle;rounded=0;orthogonalLoop=1;jettySize=auto;html=1;exitX=0;exitY=0.5;exitDx=0;exitDy=0;" edge="1" parent="WIyWlLk6GJQsqaUBKTNV-1" source="RQdduKd7LZK1Ae8wjjpL-3">
          <mxGeometry relative="1" as="geometry">
            <mxPoint x="290" y="365" as="targetPoint" />
          </mxGeometry>
        </mxCell>
        <mxCell id="RQdduKd7LZK1Ae8wjjpL-10" style="edgeStyle=orthogonalEdgeStyle;rounded=0;orthogonalLoop=1;jettySize=auto;html=1;entryX=0.5;entryY=0;entryDx=0;entryDy=0;" edge="1" parent="WIyWlLk6GJQsqaUBKTNV-1" source="RQdduKd7LZK1Ae8wjjpL-3" target="RQdduKd7LZK1Ae8wjjpL-6">
          <mxGeometry relative="1" as="geometry" />
        </mxCell>
        <mxCell id="RQdduKd7LZK1Ae8wjjpL-11" style="edgeStyle=orthogonalEdgeStyle;rounded=0;orthogonalLoop=1;jettySize=auto;html=1;entryX=0;entryY=0.5;entryDx=0;entryDy=0;" edge="1" parent="WIyWlLk6GJQsqaUBKTNV-1" source="RQdduKd7LZK1Ae8wjjpL-3" target="RQdduKd7LZK1Ae8wjjpL-7">
          <mxGeometry relative="1" as="geometry" />
        </mxCell>
        <mxCell id="RQdduKd7LZK1Ae8wjjpL-3" value="" style="rhombus;whiteSpace=wrap;html=1;" vertex="1" parent="WIyWlLk6GJQsqaUBKTNV-1">
          <mxGeometry x="339" y="290" width="150" height="150" as="geometry" />
        </mxCell>
        <mxCell id="RQdduKd7LZK1Ae8wjjpL-5" value="" style="rounded=0;whiteSpace=wrap;html=1;" vertex="1" parent="WIyWlLk6GJQsqaUBKTNV-1">
          <mxGeometry x="170" y="340" width="120" height="60" as="geometry" />
        </mxCell>
        <mxCell id="RQdduKd7LZK1Ae8wjjpL-6" value="" style="rounded=0;whiteSpace=wrap;html=1;" vertex="1" parent="WIyWlLk6GJQsqaUBKTNV-1">
          <mxGeometry x="354" y="490" width="120" height="60" as="geometry" />
        </mxCell>
        <mxCell id="RQdduKd7LZK1Ae8wjjpL-7" value="" style="rounded=0;whiteSpace=wrap;html=1;" vertex="1" parent="WIyWlLk6GJQsqaUBKTNV-1">
          <mxGeometry x="540" y="335" width="120" height="60" as="geometry" />
        </mxCell>
      </root>
    </mxGraphModel>
  </diagram>
</mxfile>
